<svg xmlns="http://www.w3.org/2000/svg" viewBox="0 0 1200 1500" width="1200" height="1500" role="img" aria-label="NOIRÉ 01 Santal Obscur — still life">
<title>NOIRÉ 01 Santal Obscur — still life</title>
<defs>
    <linearGradient id="wall-17" x1="0" y1="0" x2="0" y2="1">
      <stop offset="0" stop-color="#d4cabc"/>
      <stop offset="1" stop-color="#c8bba9"/>
    </linearGradient>
    <linearGradient id="ground-18" x1="0" y1="0" x2="0" y2="1">
      <stop offset="0" stop-color="#c4b5a1"/>
      <stop offset="1" stop-color="#b5a693"/>
    </linearGradient>
    <radialGradient id="glow-19" cx="0.28" cy="0.18" r="0.75">
      <stop offset="0" stop-color="#ffffff" stop-opacity="0.45"/>
      <stop offset="1" stop-color="#ffffff" stop-opacity="0"/>
    </radialGradient><filter id="wl-20" x="-20%" y="-20%" width="140%" height="140%"><feGaussianBlur stdDeviation="28"/></filter><radialGradient id="obj-21" cx="0.35" cy="0.3" r="0.8">
      <stop offset="0" stop-color="#a98c77"/>
      <stop offset="1" stop-color="#4f331d"/>
    </radialGradient><linearGradient id="plinth-22" x1="0" x2="1">
      <stop offset="0" stop-color="#b9ac9a"/>
      <stop offset="0.35" stop-color="#d7c9b7"/>
      <stop offset="1" stop-color="#aca090"/>
    </linearGradient>
    
    <linearGradient id="edge-23" x1="0" x2="1">
      <stop offset="0" stop-color="#998372"/>
      <stop offset="0.08" stop-color="#d8cbc2"/>
      <stop offset="0.5" stop-color="#ccbbaf"/>
      <stop offset="0.92" stop-color="#d5c7bd"/>
      <stop offset="1" stop-color="#8d7665"/>
    </linearGradient>
    <linearGradient id="liquid-24" x1="0" x2="1">
      <stop offset="0" stop-color="#53351f"/>
      <stop offset="0.18" stop-color="#7A4E2D"/>
      <stop offset="0.46" stop-color="#926e53"/>
      <stop offset="0.78" stop-color="#7A4E2D"/>
      <stop offset="1" stop-color="#492f1b"/>
    </linearGradient>
    <linearGradient id="liquidV-25" x1="0" y1="0" x2="0" y2="1">
      <stop offset="0" stop-color="#ffffff" stop-opacity="0.16"/>
      <stop offset="0.55" stop-color="#ffffff" stop-opacity="0"/>
      <stop offset="1" stop-color="#000000" stop-opacity="0.22"/>
    </linearGradient>
    <linearGradient id="base-26" x1="0" y1="0" x2="0" y2="1">
      <stop offset="0" stop-color="#9b7a62"/>
      <stop offset="0.35" stop-color="#ccbcaf"/>
      <stop offset="1" stop-color="#967c68"/>
    </linearGradient>
    <linearGradient id="collar-27" x1="0" x2="1">
      <stop offset="0" stop-color="#7D6C52"/>
      <stop offset="0.22" stop-color="#E9DCC0"/>
      <stop offset="0.45" stop-color="#A08B68"/>
      <stop offset="0.7" stop-color="#F3EAD6"/>
      <stop offset="1" stop-color="#6E5E46"/>
    </linearGradient>
    <linearGradient id="cap-28" x1="0" x2="1">
      <stop offset="0" stop-color="#0E0D0C"/>
      <stop offset="0.18" stop-color="#2E2B29"/>
      <stop offset="0.34" stop-color="#4A4643"/>
      <stop offset="0.5" stop-color="#22201E"/>
      <stop offset="1" stop-color="#0B0A09"/>
    </linearGradient>
    <linearGradient id="hl-29" x1="0" y1="0" x2="0" y2="1">
      <stop offset="0" stop-color="#ffffff" stop-opacity="0"/>
      <stop offset="0.12" stop-color="#ffffff" stop-opacity="0.75"/>
      <stop offset="0.85" stop-color="#ffffff" stop-opacity="0.45"/>
      <stop offset="1" stop-color="#ffffff" stop-opacity="0"/>
    </linearGradient>
    <clipPath id="clip-30"><rect x="0" y="232" width="420" height="568" rx="34"/></clipPath>
    <filter id="blur-31" x="-50%" y="-200%" width="200%" height="500%"><feGaussianBlur stdDeviation="8.2"/></filter>
    <filter id="blurSoft-32" x="-50%" y="-200%" width="200%" height="500%"><feGaussianBlur stdDeviation="21.32"/></filter>
    <linearGradient id="fade-33" x1="0" y1="0" x2="0" y2="1">
      <stop offset="0" stop-color="#fff" stop-opacity="0.22"/>
      <stop offset="0.35" stop-color="#fff" stop-opacity="0"/>
    </linearGradient>
    <mask id="mask-34"><rect x="297.8" y="1012" width="364.4" height="656" fill="url(#fade-33)"/></mask>
    <g id="bottle-35">
    <!-- cap -->
    <rect x="105" y="0" width="210" height="192" rx="5" fill="url(#cap-28)"/>
    <rect x="105" y="0" width="210" height="6" rx="3" fill="#ffffff" opacity="0.12"/>
    <rect x="132" y="14" width="10" height="168" fill="#ffffff" opacity="0.06"/>
    <!-- collar -->
    <rect x="140" y="190" width="140" height="44" fill="url(#collar-27)"/>
    <rect x="140" y="190" width="140" height="3" fill="#000" opacity="0.25"/>
    <!-- body: thick glass walls around the juice -->
    <rect x="0" y="232" width="420" height="568" rx="34" fill="url(#edge-23)"/>
    <g clip-path="url(#clip-30)">
      <rect x="20" y="278" width="380" height="438" rx="16" fill="url(#liquid-24)"/>
      <rect x="20" y="278" width="380" height="438" rx="16" fill="url(#liquidV-25)"/>
      <rect x="20" y="278" width="380" height="5" fill="#b69e8c" opacity="0.9"/>
      <rect x="0" y="716" width="420" height="84" fill="url(#base-26)"/>
      <rect x="20" y="716" width="380" height="2" fill="#5c3b22" opacity="0.5"/>
      <rect x="30" y="252" width="22" height="532" fill="url(#hl-29)"/>
      <rect x="64" y="262" width="56" height="510" fill="url(#hl-29)" opacity="0.18"/>
      <rect x="388" y="256" width="7" height="520" fill="url(#hl-29)" opacity="0.55"/>
      <rect x="0" y="232" width="420" height="4" fill="#ffffff" opacity="0.5"/>
    </g>
    <!-- label -->
    <g transform="translate(70 404)">
      <rect width="280" height="186" fill="#F5F0E8"/>
      <rect x="8" y="8" width="264" height="170" fill="none" stroke="#1A1918" stroke-opacity="0.18" stroke-width="1"/>
      <text x="140" y="56" text-anchor="middle" font-family="Didot, 'Bodoni 72', 'Bodoni MT', 'Times New Roman', Georgia, serif" font-size="34" letter-spacing="9" fill="#1A1918">NOIRÉ</text>
      <rect x="122" y="74" width="36" height="1" fill="#1A1918" opacity="0.5"/>
      <text x="140" y="118" text-anchor="middle" font-family="Didot, 'Bodoni 72', 'Bodoni MT', 'Times New Roman', Georgia, serif" font-size="34" font-style="italic" fill="#1A1918">01</text>
      <text x="140" y="146" text-anchor="middle" font-family="'Helvetica Neue', Helvetica, Arial, sans-serif" font-size="12" letter-spacing="4.2" fill="#1A1918">SANTAL OBSCUR</text>
      <text x="140" y="166" text-anchor="middle" font-family="'Helvetica Neue', Helvetica, Arial, sans-serif" font-size="8.5" letter-spacing="2.6" fill="#1A1918" opacity="0.6">EAU DE PARFUM</text>
    </g></g></defs>

    <rect width="1200" height="1500" fill="url(#wall-17)"/>
    <rect y="1080" width="1200" height="420" fill="url(#ground-18)"/>
    <rect width="1200" height="1500" fill="url(#glow-19)"/><g filter="url(#wl-20)" opacity="0.22" fill="#FFFDF7">
      <polygon points="96,0 360,0 864,1500 576,1500"/>
      <polygon points="432,0 540,0 1056,1500 936,1500"/>
    </g><path d="M 230 1080 L 230 420 A 370 370 0 0 1 970 420 L 970 1080 Z" fill="#e0d4c5" opacity="0.55"/><ellipse cx="860" cy="1254" rx="150" ry="12" fill="#000" opacity="0.18"/>
          <rect x="710" y="1186" width="300" height="64" fill="#877e72"/>
          <rect x="710" y="1186" width="300" height="6" fill="#fff" opacity="0.15"/>
          <rect x="748" y="1122" width="230" height="64" fill="#a59a8c"/>
      <rect x="290" y="1010" width="380" height="260" fill="url(#plinth-22)"/>
      <ellipse cx="480" cy="1010" rx="190" ry="34.199999999999996" fill="#dacebd"/>
    <polygon filter="url(#blurSoft-32)" fill="#000" opacity="0.16"
      points="316,1012 644,1012 841.62,974.28 634.98,969.36"/><ellipse cx="624.648" cy="1026.76" rx="172.2" ry="21.32" fill="#7A4E2D" opacity="0.32" filter="url(#blurSoft-32)"/><ellipse cx="480" cy="1013.64" rx="192.864" ry="13.12" fill="#000" opacity="0.32" filter="url(#blur-31)"/><use href="#bottle-35" transform="translate(307.8 356) scale(0.82)"/>
</svg>