<svg xmlns="http://www.w3.org/2000/svg" viewBox="0 0 1200 1500" width="1200" height="1500" role="img" aria-label="NOIRÉ 05 Midnight Iris — Eau de Parfum flacon">
<title>NOIRÉ 05 Midnight Iris — Eau de Parfum flacon</title>
<defs>
    <linearGradient id="wall-205" x1="0" y1="0" x2="0" y2="1">
      <stop offset="0" stop-color="#dad6da"/>
      <stop offset="1" stop-color="#CFCAD0"/>
    </linearGradient>
    <linearGradient id="ground-206" x1="0" y1="0" x2="0" y2="1">
      <stop offset="0" stop-color="#c5c0c6"/>
      <stop offset="1" stop-color="#b4aeb4"/>
    </linearGradient>
    <radialGradient id="glow-207" cx="0.28" cy="0.18" r="0.75">
      <stop offset="0" stop-color="#ffffff" stop-opacity="0.45"/>
      <stop offset="1" stop-color="#ffffff" stop-opacity="0"/>
    </radialGradient>
    
    <linearGradient id="edge-208" x1="0" x2="1">
      <stop offset="0" stop-color="#8b8694"/>
      <stop offset="0.08" stop-color="#d0cdd5"/>
      <stop offset="0.5" stop-color="#c2bec9"/>
      <stop offset="0.92" stop-color="#cdc9d2"/>
      <stop offset="1" stop-color="#7f7988"/>
    </linearGradient>
    <linearGradient id="liquid-209" x1="0" x2="1">
      <stop offset="0" stop-color="#40394c"/>
      <stop offset="0.18" stop-color="#5E5470"/>
      <stop offset="0.46" stop-color="#7b738a"/>
      <stop offset="0.78" stop-color="#5E5470"/>
      <stop offset="1" stop-color="#383243"/>
    </linearGradient>
    <linearGradient id="liquidV-210" x1="0" y1="0" x2="0" y2="1">
      <stop offset="0" stop-color="#ffffff" stop-opacity="0.16"/>
      <stop offset="0.55" stop-color="#ffffff" stop-opacity="0"/>
      <stop offset="1" stop-color="#000000" stop-opacity="0.22"/>
    </linearGradient>
    <linearGradient id="base-211" x1="0" y1="0" x2="0" y2="1">
      <stop offset="0" stop-color="#867f94"/>
      <stop offset="0.35" stop-color="#c2bec9"/>
      <stop offset="1" stop-color="#857f90"/>
    </linearGradient>
    <linearGradient id="collar-212" x1="0" x2="1">
      <stop offset="0" stop-color="#7D6C52"/>
      <stop offset="0.22" stop-color="#E9DCC0"/>
      <stop offset="0.45" stop-color="#A08B68"/>
      <stop offset="0.7" stop-color="#F3EAD6"/>
      <stop offset="1" stop-color="#6E5E46"/>
    </linearGradient>
    <linearGradient id="cap-213" x1="0" x2="1">
      <stop offset="0" stop-color="#0E0D0C"/>
      <stop offset="0.18" stop-color="#2E2B29"/>
      <stop offset="0.34" stop-color="#4A4643"/>
      <stop offset="0.5" stop-color="#22201E"/>
      <stop offset="1" stop-color="#0B0A09"/>
    </linearGradient>
    <linearGradient id="hl-214" x1="0" y1="0" x2="0" y2="1">
      <stop offset="0" stop-color="#ffffff" stop-opacity="0"/>
      <stop offset="0.12" stop-color="#ffffff" stop-opacity="0.75"/>
      <stop offset="0.85" stop-color="#ffffff" stop-opacity="0.45"/>
      <stop offset="1" stop-color="#ffffff" stop-opacity="0"/>
    </linearGradient>
    <clipPath id="clip-215"><rect x="0" y="232" width="420" height="568" rx="34"/></clipPath>
    <filter id="blur-216" x="-50%" y="-200%" width="200%" height="500%"><feGaussianBlur stdDeviation="10.4"/></filter>
    <filter id="blurSoft-217" x="-50%" y="-200%" width="200%" height="500%"><feGaussianBlur stdDeviation="27.04"/></filter>
    <linearGradient id="fade-218" x1="0" y1="0" x2="0" y2="1">
      <stop offset="0" stop-color="#fff" stop-opacity="0.22"/>
      <stop offset="0.35" stop-color="#fff" stop-opacity="0"/>
    </linearGradient>
    <mask id="mask-219"><rect x="371.6" y="1250" width="456.8" height="832" fill="url(#fade-218)"/></mask>
    <g id="bottle-220">
    <!-- cap -->
    <rect x="105" y="0" width="210" height="192" rx="5" fill="url(#cap-213)"/>
    <rect x="105" y="0" width="210" height="6" rx="3" fill="#ffffff" opacity="0.12"/>
    <rect x="132" y="14" width="10" height="168" fill="#ffffff" opacity="0.06"/>
    <!-- collar -->
    <rect x="140" y="190" width="140" height="44" fill="url(#collar-212)"/>
    <rect x="140" y="190" width="140" height="3" fill="#000" opacity="0.25"/>
    <!-- body: thick glass walls around the juice -->
    <rect x="0" y="232" width="420" height="568" rx="34" fill="url(#edge-208)"/>
    <g clip-path="url(#clip-215)">
      <rect x="20" y="278" width="380" height="438" rx="16" fill="url(#liquid-209)"/>
      <rect x="20" y="278" width="380" height="438" rx="16" fill="url(#liquidV-210)"/>
      <rect x="20" y="278" width="380" height="5" fill="#a6a1b0" opacity="0.9"/>
      <rect x="0" y="716" width="420" height="84" fill="url(#base-211)"/>
      <rect x="20" y="716" width="380" height="2" fill="#473f54" opacity="0.5"/>
      <rect x="30" y="252" width="22" height="532" fill="url(#hl-214)"/>
      <rect x="64" y="262" width="56" height="510" fill="url(#hl-214)" opacity="0.18"/>
      <rect x="388" y="256" width="7" height="520" fill="url(#hl-214)" opacity="0.55"/>
      <rect x="0" y="232" width="420" height="4" fill="#ffffff" opacity="0.5"/>
    </g>
    <!-- label -->
    <g transform="translate(70 404)">
      <rect width="280" height="186" fill="#F5F0E8"/>
      <rect x="8" y="8" width="264" height="170" fill="none" stroke="#1A1918" stroke-opacity="0.18" stroke-width="1"/>
      <text x="140" y="56" text-anchor="middle" font-family="Didot, 'Bodoni 72', 'Bodoni MT', 'Times New Roman', Georgia, serif" font-size="34" letter-spacing="9" fill="#1A1918">NOIRÉ</text>
      <rect x="122" y="74" width="36" height="1" fill="#1A1918" opacity="0.5"/>
      <text x="140" y="118" text-anchor="middle" font-family="Didot, 'Bodoni 72', 'Bodoni MT', 'Times New Roman', Georgia, serif" font-size="34" font-style="italic" fill="#1A1918">05</text>
      <text x="140" y="146" text-anchor="middle" font-family="'Helvetica Neue', Helvetica, Arial, sans-serif" font-size="12" letter-spacing="4.2" fill="#1A1918">MIDNIGHT IRIS</text>
      <text x="140" y="166" text-anchor="middle" font-family="'Helvetica Neue', Helvetica, Arial, sans-serif" font-size="8.5" letter-spacing="2.6" fill="#1A1918" opacity="0.6">EAU DE PARFUM</text>
    </g></g></defs>

    <rect width="1200" height="1500" fill="url(#wall-205)"/>
    <rect y="1180" width="1200" height="320" fill="url(#ground-206)"/>
    <rect width="1200" height="1500" fill="url(#glow-207)"/>
    <polygon filter="url(#blurSoft-217)" fill="#000" opacity="0.16"
      points="392,1250 808.0000000000001,1250 1058.64,1202.16 796.56,1195.92"/><ellipse cx="783.456" cy="1268.72" rx="218.4" ry="27.04" fill="#5E5470" opacity="0.32" filter="url(#blurSoft-217)"/><ellipse cx="600" cy="1252.08" rx="244.60800000000003" ry="16.64" fill="#000" opacity="0.32" filter="url(#blur-216)"/><g mask="url(#mask-219)"><use href="#bottle-220" transform="translate(381.6 2082) scale(1.04 -1.04) translate(0 0)"/></g><use href="#bottle-220" transform="translate(381.6 418) scale(1.04)"/>
</svg>